<svg xmlns="http://www.w3.org/2000/svg" xmlns:xlink="http://www.w3.org/1999/xlink" x="0px" y="0px"
     viewBox="0 0 512 512" style="enable-background:new 0 0 512 512;" xml:space="preserve">
<g>
	<g>
		<path d="M362.155,274.844c-17.053-16.749-26.446-38.647-26.446-61.658c0-39.698-29.271-73.592-67.015-79.858v-1.576
			c0-23.55,18.899-42.709,42.131-42.709c4.679,0,8.473-3.794,8.473-8.473s-3.794-8.473-8.473-8.473
			c-15.924,0-30.819,6.221-41.94,17.52c-0.198,0.201-0.382,0.412-0.576,0.615C257.527,38.769,211.797,0,157.177,0
			c-4.679,0-8.473,3.794-8.473,8.473c0,59.358,45.789,108.218,103.899,113.127c-0.556,3.321-0.855,6.712-0.855,10.152v0.642
			c-19.232,0.994-37.219,8.76-51.266,22.317c-15.62,15.075-24.222,35.238-24.222,56.779v0.417c0,23.819-9.503,45.972-26.759,62.378
			c-30.069,28.59-46.628,67.769-46.628,110.321c0,40.326,15.789,73.573,45.66,96.15C175.577,501.196,212.668,512,255.797,512
			c43.156,0,80.313-10.801,107.455-31.235c30.012-22.596,45.876-55.848,45.876-96.16
			C409.127,344.169,392.006,304.163,362.155,274.844z M166.055,17.35c46.198,4.226,83.087,41.116,87.313,87.313
			C207.171,100.437,170.281,63.547,166.055,17.35z M255.796,495.054c-65.737,0-135.977-29.015-135.977-110.45
			c0-37.863,14.689-72.681,41.359-98.04c20.653-19.636,32.028-46.15,32.028-74.659v-0.417c0-16.898,6.764-32.733,19.044-44.585
			c11.875-11.46,27.318-17.694,43.707-17.694c0.767,0,1.536,0.014,2.307,0.041c33.36,1.186,60.5,29.867,60.5,63.934
			c0,27.596,11.193,53.786,31.517,73.747c26.628,26.153,41.9,61.753,41.9,97.672C392.181,466.039,321.729,495.054,255.796,495.054z"
        />
	</g>
</g>
    <g>
</g>
    <g>
</g>
    <g>
</g>
    <g>
</g>
    <g>
</g>
    <g>
</g>
    <g>
</g>
    <g>
</g>
    <g>
</g>
    <g>
</g>
    <g>
</g>
    <g>
</g>
    <g>
</g>
    <g>
</g>
    <g>
</g>
</svg>
